PathFileType  4	(X/Y/Z) C:\Users\wagnerel85475\Documents\Thesis\opencap-core\Data\3375ffbc-daeb-4a43-b4f7-ac9899cd4c71\MarkerData\PreAugmentation
DataRate	CameraRate	NumFrames	NumMarkers	Units	OrigDataRate	OrigDataStartFrame	OrigNumFrames
60.0	60.0	15	20	m	60.0	212	282
Frame#	Time	Neck			RShoulder			RElbow			RWrist			LShoulder			LElbow			LWrist			midHip			RHip			RKnee			RAnkle			LHip			LKnee			LAnkle			LBigToe			LSmallToe			LHeel			RBigToe			RSmallToe			RHeel			
		X1	Y1	Z1	X2	Y2	Z2	X3	Y3	Z3	X4	Y4	Z4	X5	Y5	Z5	X6	Y6	Z6	X7	Y7	Z7	X8	Y8	Z8	X9	Y9	Z9	X10	Y10	Z10	X11	Y11	Z11	X12	Y12	Z12	X13	Y13	Z13	X14	Y14	Z14	X15	Y15	Z15	X16	Y16	Z16	X17	Y17	Z17	X18	Y18	Z18	X19	Y19	Z19	X20	Y20	Z20	

212	3.5166667	0.7805800	1.3710800	-0.1844300	0.7846900	1.3738500	0.0079000	0.6923000	1.0736500	0.0875300	0.7850700	0.7975300	0.1625000	0.7943500	1.3574400	-0.3772800	0.7611000	1.0668500	-0.4379200	0.8433400	0.7700800	-0.4585700	0.8101100	0.8244900	-0.1666900	0.8111900	0.8311200	-0.0506200	0.7662400	0.3487700	-0.0319700	0.6868500	-0.1879100	0.0038300	0.8172300	0.8229500	-0.2744800	0.7487300	0.3560000	-0.2760600	0.6864500	-0.1711600	-0.3160700	0.9018200	-0.2251000	-0.3456100	0.8374300	-0.2270300	-0.3875200	0.6397100	-0.2235000	-0.3128600	0.8924000	-0.2392500	0.0458900	0.8445400	-0.2312800	0.0830700	0.6275300	-0.2308700	-0.0165900
213	3.5333333	0.7803800	1.3710100	-0.1844500	0.7847500	1.3738500	0.0081600	0.6925100	1.0736500	0.0873600	0.7849400	0.7977500	0.1625800	0.7942900	1.3604800	-0.3771500	0.7519200	1.0664100	-0.4342000	0.8363600	0.7690600	-0.4627800	0.8103000	0.8244200	-0.1663300	0.8113900	0.8309900	-0.0504300	0.7663200	0.3484200	-0.0317800	0.6871600	-0.1847100	0.0031900	0.8249100	0.8236800	-0.2705200	0.7569300	0.3576300	-0.2795600	0.6864500	-0.1708900	-0.3160500	0.9021700	-0.2248400	-0.3456800	0.8373600	-0.2270400	-0.3875200	0.6398600	-0.2236000	-0.3129000	0.8921000	-0.2393700	0.0459400	0.8353900	-0.2344800	0.0799500	0.6274600	-0.2308700	-0.0165800
214	3.5500000	0.7805800	1.3710800	-0.1844100	0.7847300	1.3738800	0.0079400	0.6924000	1.0737300	0.0875100	0.7850400	0.7974700	0.1624500	0.7943900	1.3605600	-0.3772100	0.7519800	1.0662400	-0.4342900	0.8355400	0.7690800	-0.4624900	0.8100600	0.8274400	-0.1668300	0.8113100	0.8311000	-0.0506300	0.7663000	0.3487500	-0.0319500	0.6871700	-0.1845100	0.0031400	0.8250900	0.8269800	-0.2708000	0.7478200	0.3588000	-0.2763200	0.6864600	-0.1711300	-0.3160600	0.9018500	-0.2251200	-0.3456300	0.8374200	-0.2270600	-0.3875400	0.6396900	-0.2234100	-0.3128400	0.8922500	-0.2392400	0.0458600	0.8357700	-0.2344400	0.0801100	0.6275900	-0.2307400	-0.0166300
215	3.5666667	0.7888000	1.3708000	-0.1809000	0.7848300	1.3738700	0.0081600	0.6925200	1.0735800	0.0873000	0.7849400	0.7977500	0.1624900	0.7943500	1.3604500	-0.3771700	0.7516100	1.0663400	-0.4341100	0.8275100	0.7679300	-0.4593200	0.8102500	0.8274200	-0.1664800	0.8115300	0.8309400	-0.0504300	0.7664200	0.3484600	-0.0317600	0.6871700	-0.1846400	0.0031600	0.8244600	0.8267400	-0.2706600	0.7475600	0.3586600	-0.2762000	0.6864800	-0.1708900	-0.3160500	0.9022000	-0.2248200	-0.3456900	0.8373800	-0.2270200	-0.3875300	0.6308800	-0.2267700	-0.3167700	0.8917000	-0.2358200	0.0466100	0.8353500	-0.2344900	0.0799400	0.6274600	-0.2308100	-0.0166200
216	3.5833333	0.7889800	1.3709000	-0.1808400	0.7847700	1.3738900	0.0079900	0.7003500	1.0740400	0.0831900	0.7849900	0.7974100	0.1624300	0.7943900	1.3605600	-0.3772000	0.7518100	1.0662500	-0.4341800	0.8260400	0.7716600	-0.4588200	0.8189100	0.8283700	-0.1632100	0.8115300	0.8339300	-0.0508800	0.7663700	0.3487200	-0.0319600	0.6871200	-0.1845200	0.0031500	0.8335700	0.8279400	-0.2746400	0.7477800	0.3587400	-0.2763200	0.6864700	-0.1712000	-0.3160700	0.9019300	-0.2250600	-0.3456100	0.8375100	-0.2269900	-0.3875000	0.6306500	-0.2267300	-0.3167500	0.8918900	-0.2356700	0.0465100	0.8357000	-0.2344600	0.0800800	0.6275200	-0.2308000	-0.0166000
217	3.6000000	0.7803500	1.3709800	-0.1844400	0.7847600	1.3738700	0.0082000	0.7005900	1.0742000	0.0830100	0.7850800	0.7945400	0.1626400	0.7943000	1.3604700	-0.3771700	0.7426200	1.0656600	-0.4304900	0.8266300	0.7717400	-0.4591000	0.8185900	0.8282700	-0.1704900	0.8194300	0.8318200	-0.0544800	0.7665500	0.3485600	-0.0318400	0.6872200	-0.1845900	0.0031500	0.8331400	0.8277100	-0.2745600	0.7474700	0.3587400	-0.2762100	0.6864700	-0.1744900	-0.3166000	0.9022100	-0.2248100	-0.3456700	0.8374300	-0.2270100	-0.3875000	0.6307600	-0.2268300	-0.3167400	0.8914500	-0.2358200	0.0466800	0.8273000	-0.2374100	0.0842100	0.6275100	-0.2307600	-0.0166400
218	3.6166667	0.7889000	1.3709100	-0.1808200	0.7847900	1.3738800	0.0080200	0.6999100	1.0709700	0.0832900	0.7851700	0.7942900	0.1625800	0.7944000	1.3604900	-0.3772100	0.7428800	1.0657200	-0.4305500	0.8258300	0.7718800	-0.4587700	0.8270600	0.8292200	-0.1671300	0.8115500	0.8339200	-0.0509000	0.7665100	0.3447400	-0.0323900	0.6876800	-0.1810700	0.0024600	0.8337000	0.8278300	-0.2746800	0.7477100	0.3588200	-0.2763400	0.6864400	-0.1748300	-0.3166300	0.9019900	-0.2250100	-0.3455900	0.8375500	-0.2269800	-0.3874600	0.6210800	-0.2301400	-0.3129900	0.8916500	-0.2356400	0.0466200	0.8276500	-0.2373300	0.0843800	0.6276600	-0.2306500	-0.0167000
219	3.6333333	0.7887400	1.3707900	-0.1808400	0.7848300	1.3738800	0.0082300	0.7000900	1.0709800	0.0831400	0.7851200	0.7946200	0.1626400	0.7944100	1.3603800	-0.3771400	0.7426900	1.0657600	-0.4304800	0.8271400	0.7682100	-0.4593200	0.8103400	0.8273800	-0.1665300	0.8115900	0.8338300	-0.0506200	0.7665800	0.3444400	-0.0322100	0.6877500	-0.1812000	0.0024900	0.8329700	0.8276100	-0.2744900	0.7475000	0.3584900	-0.2761900	0.6864600	-0.1745500	-0.3166100	0.9022800	-0.2247400	-0.3456600	0.8375100	-0.2269500	-0.3874500	0.6212700	-0.2302000	-0.3130100	0.8913900	-0.2357900	0.0467100	0.8272400	-0.2373700	0.0842500	0.6275700	-0.2307000	-0.0166700
220	3.6500000	0.7889000	1.3709000	-0.1808100	0.7847700	1.3738900	0.0080400	0.6999400	1.0709800	0.0832800	0.7851700	0.7943400	0.1625900	0.7944400	1.3604700	-0.3771900	0.7428500	1.0656200	-0.4305000	0.8263100	0.7682700	-0.4590600	0.8183900	0.8283400	-0.1708000	0.8115200	0.8339700	-0.0508900	0.7664500	0.3446300	-0.0323500	0.6877000	-0.1810400	0.0024600	0.8336200	0.8278200	-0.2747000	0.7477900	0.3586300	-0.2763000	0.6864600	-0.1748300	-0.3166300	0.9019900	-0.2250000	-0.3455900	0.8375700	-0.2269400	-0.3874400	0.6304700	-0.2268300	-0.3167700	0.8839200	-0.2386300	0.0507500	0.8275400	-0.2373600	0.0844000	0.6277000	-0.2306100	-0.0167100
221	3.6666667	0.7887100	1.3707900	-0.1808400	0.7847700	1.3738500	0.0082300	0.7001100	1.0709100	0.0831500	0.7851300	0.7946800	0.1626200	0.7944000	1.3604100	-0.3771300	0.7427000	1.0657700	-0.4304700	0.8264400	0.7717800	-0.4591900	0.8272300	0.8293500	-0.1667500	0.8116800	0.8338900	-0.0506300	0.7665000	0.3443700	-0.0321800	0.6877900	-0.1811900	0.0024900	0.8330800	0.8278000	-0.2745100	0.7485900	0.3557800	-0.2758200	0.6864500	-0.1745300	-0.3166200	0.9022400	-0.2247500	-0.3456500	0.8374600	-0.2269400	-0.3874500	0.6306800	-0.2269000	-0.3167900	0.8913700	-0.2358200	0.0467000	0.8272000	-0.2373600	0.0842500	0.6276200	-0.2306900	-0.0166700
222	3.6833333	0.7807900	1.3671400	-0.1843200	0.7938300	1.3736100	0.0113400	0.7096700	1.0715100	0.0865200	0.7852300	0.7943200	0.1625600	0.7943300	1.3604000	-0.3772400	0.7428000	1.0656200	-0.4305800	0.8265300	0.7682200	-0.4591100	0.8191600	0.8252700	-0.1629700	0.8201000	0.8320100	-0.0473200	0.7663500	0.3484800	-0.0318900	0.6877100	-0.1809700	0.0024500	0.8256000	0.8238000	-0.2706600	0.7489400	0.3560000	-0.2759300	0.6864800	-0.1712100	-0.3159800	0.9018000	-0.2215400	-0.3450700	0.8370200	-0.2237900	-0.3869300	0.6303900	-0.2266700	-0.3089400	0.8841000	-0.2385500	0.0508200	0.8275300	-0.2343900	0.0838600	0.6277200	-0.2306200	-0.0167400
223	3.7000000	0.7890000	1.3669000	-0.1807600	0.7939000	1.3736600	0.0115400	0.7099100	1.0714800	0.0863800	0.7853100	0.7906400	0.1624000	0.7942800	1.3603500	-0.3771800	0.7427100	1.0657800	-0.4305700	0.8272700	0.7681900	-0.4594800	0.8193400	0.8253600	-0.1626200	0.8203200	0.8347900	-0.0472500	0.7664100	0.3442800	-0.0320900	0.6877500	-0.1810000	0.0024700	0.8245300	0.8266200	-0.2706300	0.7480500	0.3514100	-0.2759900	0.6864600	-0.1709100	-0.3159800	0.9020700	-0.2212900	-0.3451300	0.8369200	-0.2238000	-0.3869500	0.6306200	-0.2266600	-0.3089400	0.8916000	-0.2356900	0.0467700	0.8360200	-0.2311700	0.0866000	0.6276100	-0.2306300	-0.0167100
224	3.7166667	0.7892000	1.3670100	-0.1807500	0.7939000	1.3736500	0.0113600	0.7097600	1.0714900	0.0865300	0.7853800	0.7903400	0.1623500	0.7943300	1.3604400	-0.3772200	0.7518500	1.0662100	-0.4342000	0.8352500	0.7693800	-0.4626500	0.8189700	0.8283200	-0.1631200	0.8202200	0.8348900	-0.0475000	0.7663500	0.3484000	-0.0318700	0.6877200	-0.1809000	0.0024300	0.8249900	0.8266200	-0.2708000	0.7502700	0.3529500	-0.2756000	0.6864700	-0.1712400	-0.3159900	0.9017600	-0.2215500	-0.3450700	0.8369600	-0.2237800	-0.3869500	0.6304000	-0.2266700	-0.3089300	0.8918400	-0.2355300	0.0466300	0.8364000	-0.2311300	0.0867200	0.6277100	-0.2305900	-0.0167400
225	3.7333333	0.7890300	1.3668900	-0.1807400	0.7938900	1.3736300	0.0115500	0.7098500	1.0714600	0.0864200	0.7853700	0.7906400	0.1623700	0.7943200	1.3603700	-0.3771600	0.7516700	1.0663400	-0.4341500	0.8359900	0.7692500	-0.4629300	0.8191800	0.8253000	-0.1626000	0.8202400	0.8318800	-0.0470400	0.7582300	0.3422700	-0.0279400	0.6873500	-0.1844700	0.0031300	0.8248700	0.8234000	-0.2704500	0.7480900	0.3512900	-0.2760000	0.6864900	-0.1708800	-0.3159900	0.9020300	-0.2213200	-0.3451200	0.8368700	-0.2238200	-0.3869500	0.6400400	-0.2234000	-0.3127300	0.8918100	-0.2356000	0.0466200	0.8441900	-0.2311000	0.0828700	0.6275900	-0.2307300	-0.0166500
226	3.7500000	0.7889700	1.3708500	-0.1807900	0.7939100	1.3736400	0.0113900	0.7097100	1.0715200	0.0865600	0.7929900	0.7882100	0.1582500	0.7943700	1.3604800	-0.3771700	0.7519700	1.0662300	-0.4342700	0.8354700	0.7694300	-0.4626700	0.8191600	0.8251400	-0.1629800	0.8201800	0.8318800	-0.0473500	0.7583200	0.3426000	-0.0281500	0.6878200	-0.1809500	0.0024500	0.8255700	0.8235200	-0.2706900	0.7483400	0.3513400	-0.2761800	0.6865300	-0.1711700	-0.3160200	0.9017700	-0.2215600	-0.3450500	0.8369700	-0.2238000	-0.3869400	0.6398100	-0.2233300	-0.3127800	0.8919500	-0.2354300	0.0465400	0.8443200	-0.2281000	0.0824400	0.6277500	-0.2306100	-0.0167000
